<svg width="64" height="64" viewBox="0 0 64 64" fill="none" xmlns="http://www.w3.org/2000/svg">
<path d="M36.8021 37.5219C35.0615 37.5219 33.36 37.0316 31.9127 36.1129C30.4655 35.1942 29.3375 33.8885 28.6714 32.3608C28.0053 30.8331 27.831 29.1521 28.1706 27.5303C28.5101 25.9085 29.3483 24.4188 30.5791 23.2495C31.8099 22.0803 33.378 21.284 35.0852 20.9614C36.7923 20.6388 38.5618 20.8044 40.1699 21.4372C41.778 22.07 43.1525 23.1416 44.1195 24.5165C45.0865 25.8914 45.6027 27.5078 45.6027 29.1614C45.6027 31.3787 44.6755 33.5053 43.025 35.0732C41.3746 36.6411 39.1361 37.5219 36.8021 37.5219ZM36.8021 23.5876C35.6417 23.5876 34.5073 23.9145 33.5425 24.527C32.5777 25.1394 31.8257 26.0099 31.3816 27.0284C30.9375 28.0468 30.8214 29.1675 31.0477 30.2487C31.2741 31.3299 31.8329 32.3231 32.6534 33.1026C33.4739 33.8821 34.5194 34.4129 35.6575 34.628C36.7956 34.843 37.9752 34.7327 39.0473 34.3108C40.1194 33.8889 41.0357 33.1745 41.6804 32.2579C42.325 31.3413 42.6691 30.2637 42.6691 29.1614C42.6691 27.6831 42.051 26.2654 40.9507 25.2201C39.8504 24.1749 38.3581 23.5876 36.8021 23.5876Z" fill="#B69D86"/>
<path fill-rule="evenodd" clip-rule="evenodd" d="M7.76012 48.3592L13.8748 40.508L17.0233 44.2896L21.4957 38.5292L28.8816 48.3771V36.6429H7.76012V48.3592ZM6.47478 50.7239C6.39327 50.5838 6.32115 50.4376 6.25929 50.2863C6.0922 49.8775 6 49.4309 6 48.9638V34.8828H30.6417V52.484H9.52024C8.22411 52.484 7.08575 51.7741 6.47478 50.7239ZM17.0712 47.098L13.9205 43.3138L9.52024 48.9638H27.1214L21.4715 41.4305L17.0712 47.098Z" fill="#FD9F32"/>
<path fill-rule="evenodd" clip-rule="evenodd" d="M30.642 43.6822H55.598C55.9815 43.6822 56.3492 43.53 56.6203 43.2602C56.8915 42.9903 57.0438 42.6242 57.0438 42.2417V17.7608C57.0438 17.3783 56.8915 17.0122 56.6203 16.7424C56.3492 16.4716 55.9815 16.3204 55.598 16.3204H46.2581L43.7857 12.648C43.6547 12.4503 43.4766 12.2871 43.2673 12.1745C43.058 12.061 42.8238 12.0009 42.5858 12H31.0191C30.781 12.0009 30.5468 12.061 30.3375 12.1745C30.1283 12.2871 29.9502 12.4503 29.8191 12.648L27.3467 16.3204H18.0068C17.7836 16.3204 17.5657 16.3711 17.3691 16.4673C17.228 16.5369 17.0978 16.6289 16.9845 16.7424C16.7134 17.0122 16.561 17.3783 16.561 17.7608V34.8816H19.4526V19.2003H28.1275C28.3656 19.1995 28.5998 19.1393 28.8093 19.0267C29.0185 18.9133 29.1966 18.7509 29.3275 18.5523L31.7999 14.88H41.805L44.2773 18.5523C44.4082 18.7509 44.5863 18.9133 44.7956 19.0267C44.9486 19.1092 45.1146 19.1634 45.2861 19.1874C45.3493 19.196 45.4131 19.2003 45.4773 19.2003H54.1522V40.8022H30.642V43.6822Z" fill="#B69D86"/>
</svg>
