<svg width="64" height="64" viewBox="0 0 64 64" fill="none" xmlns="http://www.w3.org/2000/svg">
<path fill-rule="evenodd" clip-rule="evenodd" d="M15 45C15 43.8954 15.8954 43 17 43H23C24.1046 43 25 43.8954 25 45V54H23V45L17 45V54H15V45Z" fill="#FD9F32"/>
<path fill-rule="evenodd" clip-rule="evenodd" d="M27.9434 10.8752C28.0092 9.82118 28.8833 9 29.9395 9H39.0751C40.1192 9 40.9877 9.80324 41.069 10.8442L43.497 41.9221L41.503 42.0779L39.0751 11L29.9395 11L28.4981 34.0624L26.502 33.9376L27.9434 10.8752Z" fill="#B69D86"/>
<path fill-rule="evenodd" clip-rule="evenodd" d="M57 43H34V41H57C58.1046 41 59 41.8954 59 43V53C59 54.1046 58.1046 55 57 55H31V53H57V43Z" fill="#B69D86"/>
<path fill-rule="evenodd" clip-rule="evenodd" d="M46.9182 21.8104C47.0159 20.7839 47.8781 20 48.9092 20H55.0848C56.1208 20 56.9853 20.791 57.077 21.8229L58.996 43.4115L57.0038 43.5885L55.0848 22L48.9092 22L46.9954 42.0948L45.0044 41.9052L46.9182 21.8104Z" fill="#B69D86"/>
<path fill-rule="evenodd" clip-rule="evenodd" d="M18.2912 27.6605C19.0059 27.1184 19.9941 27.1184 20.7088 27.6605L19.5 29.2539L6 39.4953L6 52.9987H33V39.4953L19.5 29.2539L20.7088 27.6605L34.2088 37.9019C34.7072 38.28 35 38.8696 35 39.4953V52.9987C35 54.1033 34.1046 54.9987 33 54.9987H6C4.89543 54.9987 4 54.1033 4 52.9987V39.4953C4 38.8696 4.29278 38.28 4.79123 37.9019L18.2912 27.6605Z" fill="#FD9F32"/>
</svg>
