<svg width="64" height="64" viewBox="0 0 64 64" fill="none" xmlns="http://www.w3.org/2000/svg">
<path fill-rule="evenodd" clip-rule="evenodd" d="M22 12H52V45C52 49.9706 47.9706 54 43 54H23C22.4477 54 22 53.5523 22 53C22 52.4477 22.4477 52 23 52H43C46.866 52 50 48.866 50 45V14H24V40C24 40.5523 23.5523 41 23 41C22.4477 41 22 40.5523 22 40V12Z" fill="#B69D86"/>
<path fill-rule="evenodd" clip-rule="evenodd" d="M15 39H44V41H17V46.5C17 49.5376 19.4624 52 22.5 52H43C43.5523 52 44 52.4477 44 53C44 53.5523 43.5523 54 43 54H22.5C18.3579 54 15 50.6421 15 46.5V39Z" fill="#B69D86"/>
<path fill-rule="evenodd" clip-rule="evenodd" d="M48 33C48.5523 33 49 33.4477 49 34V45C49 46.933 47.433 48.5 45.5 48.5C43.567 48.5 42 46.933 42 45V40H44V45C44 45.8284 44.6716 46.5 45.5 46.5C46.3284 46.5 47 45.8284 47 45V34C47 33.4477 47.4477 33 48 33Z" fill="#B69D86"/>
<path d="M5.56452 19.5603C5.72108 21.3555 6.58954 22.9633 7.98698 24.07L16.8194 31.4909C18.6597 33.0368 20.9918 33.7737 23.3877 33.5648L24.8431 33.4378L22.6473 31.5943C20.9861 31.6067 19.3909 31.0387 18.1053 29.9593L9.24974 22.5209C8.2653 21.7414 7.66521 20.6278 7.55696 19.3866C7.3414 16.9149 9.17735 14.7282 11.649 14.5126C12.8903 14.4043 14.0895 14.8032 15.0503 15.657L17.2523 17.5039L18.7326 20.9214L18.5279 18.5748L22.6655 22.0468L24.1481 25.4681L23.9436 23.1235C25.341 24.3222 26.2009 25.9863 26.3611 27.8238L26.5389 29.8629L16.4737 21.4125L15.1879 22.944L29.5855 35.0318L30.8714 33.5003L28.7051 31.6816L28.3535 27.65C28.1447 25.2551 27.0161 23.0847 25.1739 21.5399L16.3575 14.1451C15.0037 12.9402 13.2704 12.3636 11.4752 12.5202C7.90476 12.8315 5.25314 15.9899 5.56452 19.5603Z" fill="#FD9F32"/>
</svg>
