<svg width="24" height="20" viewBox="0 0 24 20" fill="none" xmlns="http://www.w3.org/2000/svg">
<path d="M1.01053 4.077e-05C0.454737 4.077e-05 0 0.45004 0 1.00004C0 1.55004 0.454737 2.00004 1.01053 2.00004H3.25288L5.90552 12.5C6.12985 13.39 6.93625 14 7.86291 14H19.4526C20.3641 14 21.1382 13.402 21.3787 12.531L24 3.00003H7.07368L7.57895 5.00003H21.3787L19.4526 12H7.86291L5.21027 1.50004C5.10098 1.06935 4.84878 0.687423 4.49405 0.41545C4.13933 0.143476 3.70262 -0.00280572 3.25389 4.077e-05H1.01053ZM18.1895 14C16.5272 14 15.1579 15.355 15.1579 17C15.1579 18.645 16.5272 20 18.1895 20C19.8518 20 21.2211 18.645 21.2211 17C21.2211 15.355 19.8518 14 18.1895 14ZM9.09474 14C7.43242 14 6.06316 15.355 6.06316 17C6.06316 18.645 7.43242 20 9.09474 20C10.7571 20 12.1263 18.645 12.1263 17C12.1263 15.355 10.7571 14 9.09474 14ZM9.09474 16C9.66366 16 10.1053 16.438 10.1053 17C10.1053 17.563 9.66265 18 9.09474 18C8.52581 18 8.08421 17.562 8.08421 17C8.08421 16.437 8.52682 16 9.09474 16ZM18.1895 16C18.7584 16 19.2 16.438 19.2 17C19.2 17.563 18.7574 18 18.1895 18C17.6205 18 17.1789 17.562 17.1789 17C17.1789 16.437 17.6216 16 18.1895 16Z" fill="#664B42"/>
</svg>
