<svg width="24" height="24" viewBox="0 0 24 24" fill="none" xmlns="http://www.w3.org/2000/svg">
<path fill-rule="evenodd" clip-rule="evenodd" d="M12 24C18.6274 24 24 18.6274 24 12C24 5.37258 18.6274 0 12 0C5.37258 0 0 5.37258 0 12C0 18.6274 5.37258 24 12 24ZM9.66383 12C9.66383 10.7146 10.7128 9.66567 11.9981 9.66567C13.2835 9.66567 14.3324 10.7146 14.3324 12C14.3324 13.2854 13.2835 14.3343 11.9981 14.3343C10.7128 14.3343 9.66383 13.2854 9.66383 12ZM18.9995 11.6464C18.9993 11.7641 18.9992 11.882 18.9992 12C18.9992 12.1319 18.9994 12.2637 18.9996 12.3954C19.0008 13.2283 19.0021 14.0563 18.9537 14.8895C18.8994 16.0102 18.6455 17.0031 17.8242 17.8244C17.0047 18.644 16.01 18.8997 14.8893 18.9539C14.0421 19.0016 13.2004 19.0007 12.3534 18.9997C12.2357 18.9996 12.1178 18.9995 11.9999 18.9995C11.8821 18.9995 11.7645 18.9996 11.647 18.9997C10.8011 19.0007 9.95916 19.0016 9.11047 18.9539C7.98974 18.8997 6.99683 18.6457 6.17554 17.8244C5.356 17.0049 5.10034 16.0102 5.04605 14.8895C4.99839 14.0423 4.99932 13.1992 5.00026 12.353C5.00039 12.2354 5.00052 12.1177 5.00052 12C5.00052 11.8823 5.00039 11.7646 5.00026 11.647C4.99932 10.8012 4.99839 9.95924 5.04605 9.11055C5.10034 7.98979 5.35425 6.99687 6.17554 6.17556C6.99508 5.35601 7.98974 5.10034 9.11047 5.04605C9.95759 4.99839 10.7993 4.99932 11.6463 5.00026C11.764 5.00039 11.8819 5.00052 11.9999 5.00052C12.1176 5.00052 12.2353 5.00039 12.3528 5.00026C13.1987 4.99932 14.0406 4.99839 14.8893 5.04605C16.01 5.10034 17.0029 5.35426 17.8242 6.17556C18.6437 6.99512 18.8994 7.98979 18.9537 9.11055C19.0013 9.95767 19.0004 10.7994 18.9995 11.6464ZM8.40651 12C8.40651 13.9876 10.0106 15.5917 11.9981 15.5917C13.9857 15.5917 15.5897 13.9876 15.5897 12C15.5897 10.0124 13.9857 8.40832 11.9981 8.40832C10.0106 8.40832 8.40651 10.0124 8.40651 12ZM14.898 8.26122C14.898 8.72529 15.2728 9.10004 15.7368 9.10004C15.847 9.10018 15.9562 9.07858 16.058 9.03647C16.1598 8.99437 16.2523 8.93258 16.3303 8.85466C16.4082 8.77675 16.47 8.68422 16.5121 8.58239C16.5542 8.48056 16.5758 8.37142 16.5756 8.26122C16.5756 7.79716 16.2009 7.42241 15.7368 7.42241C15.2728 7.42241 14.898 7.79716 14.898 8.26122Z" fill="#B69D86"/>
</svg>
