<svg width="24" height="24" viewBox="0 0 24 24" fill="none" xmlns="http://www.w3.org/2000/svg">
<path fill-rule="evenodd" clip-rule="evenodd" d="M12 24C18.6274 24 24 18.6274 24 12C24 5.37258 18.6274 0 12 0C5.37258 0 0 5.37258 0 12C0 18.6274 5.37258 24 12 24ZM5.3335 11.9391C5.3335 13.6004 6.23883 15.1184 7.63816 16.1237C7.7615 16.2057 7.82283 16.3284 7.82283 16.4924C7.82283 16.5131 7.81783 16.5387 7.81283 16.5644C7.80783 16.5901 7.80283 16.6157 7.80283 16.6364C7.6995 17.0464 7.51416 17.7237 7.49416 17.7437C7.49015 17.7554 7.48619 17.7663 7.4824 17.7767C7.46602 17.8218 7.45283 17.858 7.45283 17.9084C7.45353 17.9682 7.47767 18.0253 7.52007 18.0674C7.56246 18.1096 7.61972 18.1334 7.6795 18.1337C7.72318 18.1294 7.76533 18.1152 7.80283 18.0924L9.2635 17.2517C9.36683 17.1897 9.49016 17.1497 9.6135 17.1497H9.61351C9.67484 17.1497 9.7575 17.1497 9.81883 17.1697C10.5271 17.3779 11.262 17.4815 12.0002 17.4771C15.6835 17.4771 18.6668 14.9951 18.6668 11.9391C18.6668 8.88239 15.6835 6.40039 12.0002 6.40039C8.31683 6.40039 5.3335 8.88239 5.3335 11.9391ZM10.6348 10.1511C10.6348 10.6291 10.2562 11.0077 9.77816 11.0077C9.2995 11.0077 8.9215 10.6291 8.9215 10.1511C8.9215 9.67239 9.2995 9.29372 9.77816 9.29372C10.2562 9.29372 10.6348 9.67239 10.6348 10.1511ZM15.0788 10.1511C15.0788 10.6291 14.7008 11.0077 14.2222 11.0077C13.7442 11.0077 13.3655 10.6291 13.3655 10.1511C13.3655 9.67239 13.7442 9.29372 14.2222 9.29372C14.7008 9.29372 15.0788 9.67239 15.0788 10.1511Z" fill="#B69D86"/>
</svg>
