<svg width="22" height="22" viewBox="0 0 22 22" fill="none" xmlns="http://www.w3.org/2000/svg">
<path d="M16.5 8.9375H15.125C15.1245 8.39066 14.907 7.86637 14.5203 7.4797C14.1336 7.09302 13.6093 6.87555 13.0625 6.875V5.5C13.9738 5.50109 14.8476 5.86361 15.492 6.50803C16.1364 7.15245 16.4989 8.02615 16.5 8.9375Z" fill="#664B42"/>
<path d="M19.25 8.9375H17.875C17.8735 7.66159 17.366 6.43836 16.4638 5.53616C15.5616 4.63395 14.3384 4.12646 13.0625 4.125V2.75C14.7029 2.75182 16.2757 3.4043 17.4357 4.56429C18.5957 5.72427 19.2481 7.29703 19.25 8.9375ZM17.875 19.9375H17.7581C4.24871 19.1606 2.33059 7.76188 2.06246 4.28313C2.02056 3.73776 2.197 3.19809 2.55297 2.78281C2.90894 2.36753 3.41529 2.11066 3.96065 2.06869C4.01519 2.06456 4.06996 2.0625 4.12496 2.0625H7.74809C8.02347 2.06223 8.29259 2.14466 8.52059 2.29911C8.74858 2.45356 8.92495 2.67291 9.02684 2.92875L10.0718 5.5C10.1725 5.74994 10.1974 6.02393 10.1436 6.28794C10.0899 6.55195 9.95971 6.79434 9.76934 6.985L8.30496 8.46313C8.53278 9.76341 9.15498 10.9622 10.0872 11.8969C11.0194 12.8315 12.2165 13.4569 13.5162 13.6881L15.0081 12.21C15.2016 12.0217 15.4463 11.8946 15.7116 11.8445C15.9769 11.7944 16.2511 11.8234 16.5 11.9281L19.0918 12.9663C19.3438 13.0714 19.5588 13.2491 19.7094 13.4768C19.86 13.7046 19.9394 13.972 19.9375 14.245V17.875C19.9375 18.422 19.7202 18.9466 19.3334 19.3334C18.9466 19.7202 18.422 19.9375 17.875 19.9375ZM4.12496 3.4375C4.03468 3.43723 3.94523 3.45474 3.86171 3.48904C3.7782 3.52334 3.70225 3.57376 3.63822 3.63741C3.57419 3.70105 3.52332 3.77669 3.48852 3.86C3.45372 3.94331 3.43567 4.03265 3.4354 4.12294C3.4354 4.14219 3.43609 4.16121 3.43746 4.18C3.75371 8.25 5.78184 17.875 17.8337 18.5625C18.0157 18.5734 18.1945 18.5116 18.3309 18.3907C18.4673 18.2697 18.5501 18.0996 18.5611 17.9176L18.5625 17.875V14.245L15.9706 13.2069L13.9975 15.1662L13.6675 15.125C7.68621 14.3756 6.87496 8.39438 6.87496 8.3325L6.83371 8.0025L8.78621 6.02938L7.75496 3.4375H4.12496Z" fill="#664B42"/>
</svg>
