<svg width="53" height="54" viewBox="0 0 53 54" fill="none" xmlns="http://www.w3.org/2000/svg">
<path d="M8.89551 16.3037C8.06241 10.9714 9.00661 8.94515 13.368 5.76906C16.1065 3.77475 19.4598 1 23.0524 1C29.2706 1 18.7327 38.4644 17.453 42.5335C16.4518 45.7171 14.4984 54.4833 9.35332 52.7834C4.09426 51.0459 1.54054 45.4029 1.07754 40.2557C-0.0458837 27.7669 11.2216 15.0281 22.9819 12.2464C29.8177 10.6296 29.3222 19.2712 29.0391 23.7776C28.8963 26.0501 27.2894 32.3589 29.3913 27.1942C31.0233 23.184 32.8409 18.2671 35.5189 14.8089C37.9415 11.6805 38.9833 15.9034 39.8152 17.5849C40.307 18.579 50.6746 12.9752 52 12.46" stroke="#50220F" stroke-width="2" stroke-linecap="round"/>
</svg>
