<svg width="64" height="64" viewBox="0 0 64 64" fill="none" xmlns="http://www.w3.org/2000/svg">
<path fill-rule="evenodd" clip-rule="evenodd" d="M13 10.8519C13 10.3814 13.3926 10 13.8769 10H20V11.7037H14.7538V52.8765C14.7538 53.2531 14.9078 53.6142 15.1819 53.8805C15.456 54.1467 15.8278 54.2963 16.2154 54.2963H47.7846C48.1722 54.2963 48.544 54.1467 48.8181 53.8805C49.0922 53.6142 49.2462 53.2531 49.2462 52.8765V11.7037H32.5V10H50.1231C50.6074 10 51 10.3814 51 10.8519V52.8765C51 53.7049 50.6612 54.4994 50.0582 55.0852C49.4552 55.6709 48.6374 56 47.7846 56H16.2154C15.3626 56 14.5448 55.6709 13.9418 55.0852C13.3388 54.4994 13 53.7049 13 52.8765V10.8519Z" fill="#B69D86"/>
<path fill-rule="evenodd" clip-rule="evenodd" d="M20.0957 9.16888C20.365 8.89648 20.7301 8.74337 21.1109 8.74324H30.5C30.5762 8.74324 30.6493 8.77385 30.7031 8.82834C30.757 8.88283 30.7872 8.95673 30.7872 9.03378V35.9836L26.5136 31.6607C26.352 31.4972 26.1328 31.4054 25.9043 31.4054C25.6757 31.4054 25.4566 31.4972 25.295 31.6607L21.0213 35.9836V10.1959C21.0213 9.71456 20.6355 9.32432 20.1596 9.32432H19.9421L20.0957 9.16888ZM31.9217 7.59568C32.2988 7.97709 32.5106 8.49439 32.5106 9.03378V15.7162V17.4595V23.8514V25.5946V31.9865V33.7297V38.0878C32.5106 38.4404 32.3007 38.7582 31.9787 38.8931C31.6567 39.028 31.2861 38.9534 31.0396 38.7042L25.9043 33.5097L20.7689 38.7042C20.5225 38.9534 20.1518 39.028 19.8298 38.8931C19.5078 38.7582 19.2979 38.4404 19.2979 38.0878V11.0676H17.8617C17.5132 11.0676 17.199 10.8552 17.0656 10.5295C16.9322 10.2038 17.006 9.8289 17.2524 9.57962L18.877 7.93632C19.4694 7.33698 20.2731 7.00018 21.1109 7H30.5C31.0333 7 31.5447 7.21427 31.9217 7.59568ZM21.1109 8.74324C20.7301 8.74337 20.365 8.89648 20.0957 9.16888L19.9421 9.32432H20.1596C20.6355 9.32432 21.0213 9.71456 21.0213 10.1959V35.9836L25.295 31.6607C25.4566 31.4972 25.6757 31.4054 25.9043 31.4054C26.1328 31.4054 26.352 31.4972 26.5136 31.6607L30.7872 35.9836V9.03378C30.7872 8.95673 30.757 8.88283 30.7031 8.82834C30.6493 8.77385 30.5762 8.74324 30.5 8.74324H21.1109C21.111 8.74324 21.1109 8.74324 21.1109 8.74324ZM32.5106 15.7162V9.03378C32.5106 8.49439 32.2988 7.97709 31.9217 7.59568C31.5447 7.21427 31.0333 7 30.5 7H21.1109C20.2731 7.00018 19.4694 7.33698 18.877 7.93632C18.877 7.93629 18.877 7.93635 18.877 7.93632L17.2524 9.57962C17.006 9.8289 16.9322 10.2038 17.0656 10.5295C17.199 10.8552 17.5132 11.0676 17.8617 11.0676H19.2979V38.0878C19.2979 38.4404 19.5078 38.7582 19.8298 38.8931C20.1518 39.028 20.5225 38.9534 20.7689 38.7042L25.9043 33.5097L31.0396 38.7042C31.2861 38.9534 31.6567 39.028 31.9787 38.8931C32.3007 38.7582 32.5106 38.4404 32.5106 38.0878V33.7297H43.1383C43.6142 33.7297 44 33.3395 44 32.8581C44 32.3767 43.6142 31.9865 43.1383 31.9865H32.5106V25.5946H43.1383C43.6142 25.5946 44 25.2044 44 24.723C44 24.2416 43.6142 23.8514 43.1383 23.8514H32.5106V17.4595H43.1383C43.6142 17.4595 44 17.0692 44 16.5878C44 16.1065 43.6142 15.7162 43.1383 15.7162H32.5106ZM19.2979 40.9932C19.2979 40.5119 19.6837 40.1216 20.1596 40.1216H43.1383C43.6142 40.1216 44 40.5119 44 40.9932C44 41.4746 43.6142 41.8649 43.1383 41.8649H20.1596C19.6837 41.8649 19.2979 41.4746 19.2979 40.9932ZM19.2979 49.1284C19.2979 48.647 19.6837 48.2568 20.1596 48.2568H43.1383C43.6142 48.2568 44 48.647 44 49.1284C44 49.6098 43.6142 50 43.1383 50H20.1596C19.6837 50 19.2979 49.6098 19.2979 49.1284Z" fill="#B69D86"/>
<path fill-rule="evenodd" clip-rule="evenodd" d="M20.1934 9.17163C20.4711 8.89888 20.8478 8.74558 21.2406 8.74545H30.9259C31.0045 8.74545 31.0799 8.7761 31.1354 8.83066C31.191 8.88521 31.2222 8.95921 31.2222 9.03636V36.0203L26.8137 31.692C26.647 31.5283 26.4209 31.4363 26.1852 31.4363C25.9494 31.4363 25.7234 31.5283 25.5567 31.692L21.1482 36.0203V10.2C21.1482 9.718 20.7502 9.32727 20.2593 9.32727H20.0349L20.1934 9.17163ZM32.3925 7.59644C32.7815 7.97833 33 8.49629 33 9.03636V15.7273V17.4727V23.8727V25.6182V32.0182V33.7636V38.1273C33 38.4802 32.7834 38.7985 32.4513 38.9335C32.1191 39.0686 31.7368 38.994 31.4826 38.7444L26.1852 33.5433L20.8878 38.7444C20.6336 38.994 20.2513 39.0686 19.9191 38.9335C19.587 38.7985 19.3704 38.4802 19.3704 38.1273V11.0727H17.8889C17.5294 11.0727 17.2053 10.8601 17.0677 10.534C16.9301 10.2079 17.0062 9.83249 17.2604 9.58289L18.9362 7.93751C19.5473 7.33741 20.3763 7.00018 21.2406 7H30.9259C31.476 7 32.0036 7.21454 32.3925 7.59644Z" fill="#FD9F32"/>
</svg>
